<mxfile host="Electron" modified="2024-08-26T22:16:38.661Z" agent="Mozilla/5.0 (Windows NT 10.0; Win64; x64) AppleWebKit/537.36 (KHTML, like Gecko) draw.io/22.1.2 Chrome/114.0.5735.289 Electron/25.9.4 Safari/537.36" etag="63USayKqHajfpezE03xO" version="22.1.2" type="device">
  <diagram name="Page-1" id="nErGe-eBGmOxqZkqxwFg">
    <mxGraphModel dx="1235" dy="787" grid="1" gridSize="10" guides="1" tooltips="1" connect="1" arrows="1" fold="1" page="1" pageScale="1" pageWidth="1920" pageHeight="1200" math="0" shadow="0">
      <root>
        <mxCell id="0" />
        <mxCell id="1" parent="0" />
        <mxCell id="niBrkCM9sAj3qQ2ssmBh-13" value="Device" style="rounded=1;whiteSpace=wrap;html=1;strokeColor=default;align=center;verticalAlign=middle;fontFamily=Helvetica;fontSize=12;fontColor=default;fillColor=default;" parent="1" vertex="1">
          <mxGeometry x="470" y="500" width="580" height="30" as="geometry" />
        </mxCell>
        <mxCell id="niBrkCM9sAj3qQ2ssmBh-24" style="edgeStyle=orthogonalEdgeStyle;shape=connector;rounded=1;orthogonalLoop=1;jettySize=auto;html=1;entryX=0.5;entryY=1;entryDx=0;entryDy=0;labelBackgroundColor=default;strokeColor=default;align=center;verticalAlign=middle;fontFamily=Helvetica;fontSize=12;fontColor=default;endArrow=oval;endFill=1;" parent="1" source="niBrkCM9sAj3qQ2ssmBh-14" target="niBrkCM9sAj3qQ2ssmBh-13" edge="1">
          <mxGeometry relative="1" as="geometry" />
        </mxCell>
        <mxCell id="niBrkCM9sAj3qQ2ssmBh-14" value="Buffer" style="rounded=1;whiteSpace=wrap;html=1;strokeColor=default;align=center;verticalAlign=middle;fontFamily=Helvetica;fontSize=12;fontColor=default;fillColor=default;" parent="1" vertex="1">
          <mxGeometry x="700" y="650" width="120" height="60" as="geometry" />
        </mxCell>
        <mxCell id="niBrkCM9sAj3qQ2ssmBh-25" style="edgeStyle=orthogonalEdgeStyle;shape=connector;rounded=1;orthogonalLoop=1;jettySize=auto;html=1;entryX=0.5;entryY=1;entryDx=0;entryDy=0;labelBackgroundColor=default;strokeColor=default;align=center;verticalAlign=middle;fontFamily=Helvetica;fontSize=12;fontColor=default;endArrow=oval;endFill=1;" parent="1" source="niBrkCM9sAj3qQ2ssmBh-15" target="niBrkCM9sAj3qQ2ssmBh-13" edge="1">
          <mxGeometry relative="1" as="geometry">
            <Array as="points">
              <mxPoint x="990" y="580" />
              <mxPoint x="760" y="580" />
            </Array>
          </mxGeometry>
        </mxCell>
        <mxCell id="niBrkCM9sAj3qQ2ssmBh-15" value="Shader" style="rounded=1;whiteSpace=wrap;html=1;strokeColor=default;align=center;verticalAlign=middle;fontFamily=Helvetica;fontSize=12;fontColor=default;fillColor=default;" parent="1" vertex="1">
          <mxGeometry x="930" y="650" width="120" height="60" as="geometry" />
        </mxCell>
        <mxCell id="niBrkCM9sAj3qQ2ssmBh-23" style="edgeStyle=orthogonalEdgeStyle;rounded=1;orthogonalLoop=1;jettySize=auto;html=1;entryX=0.5;entryY=1;entryDx=0;entryDy=0;fontFamily=Helvetica;fontSize=12;fontColor=default;endArrow=oval;endFill=1;" parent="1" source="niBrkCM9sAj3qQ2ssmBh-16" target="niBrkCM9sAj3qQ2ssmBh-13" edge="1">
          <mxGeometry relative="1" as="geometry">
            <Array as="points">
              <mxPoint x="530" y="580" />
              <mxPoint x="760" y="580" />
            </Array>
          </mxGeometry>
        </mxCell>
        <mxCell id="niBrkCM9sAj3qQ2ssmBh-16" value="Texture" style="rounded=1;whiteSpace=wrap;html=1;strokeColor=default;align=center;verticalAlign=middle;fontFamily=Helvetica;fontSize=12;fontColor=default;fillColor=default;" parent="1" vertex="1">
          <mxGeometry x="470" y="650" width="120" height="60" as="geometry" />
        </mxCell>
        <mxCell id="niBrkCM9sAj3qQ2ssmBh-20" style="edgeStyle=orthogonalEdgeStyle;rounded=0;orthogonalLoop=1;jettySize=auto;html=1;entryX=0.5;entryY=1;entryDx=0;entryDy=0;fontFamily=Helvetica;fontSize=12;fontColor=default;endArrow=oval;endFill=1;" parent="1" source="niBrkCM9sAj3qQ2ssmBh-17" target="niBrkCM9sAj3qQ2ssmBh-16" edge="1">
          <mxGeometry relative="1" as="geometry" />
        </mxCell>
        <mxCell id="niBrkCM9sAj3qQ2ssmBh-17" value="API Texture Object" style="shape=process;whiteSpace=wrap;html=1;backgroundOutline=1;rounded=1;strokeColor=default;align=center;verticalAlign=middle;fontFamily=Helvetica;fontSize=12;fontColor=default;fillColor=default;" parent="1" vertex="1">
          <mxGeometry x="470" y="800" width="120" height="60" as="geometry" />
        </mxCell>
        <mxCell id="niBrkCM9sAj3qQ2ssmBh-21" style="edgeStyle=orthogonalEdgeStyle;rounded=0;orthogonalLoop=1;jettySize=auto;html=1;entryX=0.5;entryY=1;entryDx=0;entryDy=0;fontFamily=Helvetica;fontSize=12;fontColor=default;endArrow=oval;endFill=1;" parent="1" source="niBrkCM9sAj3qQ2ssmBh-18" target="niBrkCM9sAj3qQ2ssmBh-14" edge="1">
          <mxGeometry relative="1" as="geometry" />
        </mxCell>
        <mxCell id="niBrkCM9sAj3qQ2ssmBh-18" value="API Resource" style="shape=process;whiteSpace=wrap;html=1;backgroundOutline=1;rounded=1;strokeColor=default;align=center;verticalAlign=middle;fontFamily=Helvetica;fontSize=12;fontColor=default;fillColor=default;" parent="1" vertex="1">
          <mxGeometry x="700" y="800" width="120" height="60" as="geometry" />
        </mxCell>
        <mxCell id="niBrkCM9sAj3qQ2ssmBh-22" style="edgeStyle=orthogonalEdgeStyle;rounded=0;orthogonalLoop=1;jettySize=auto;html=1;entryX=0.5;entryY=1;entryDx=0;entryDy=0;fontFamily=Helvetica;fontSize=12;fontColor=default;endArrow=oval;endFill=1;" parent="1" source="niBrkCM9sAj3qQ2ssmBh-19" target="niBrkCM9sAj3qQ2ssmBh-15" edge="1">
          <mxGeometry relative="1" as="geometry" />
        </mxCell>
        <mxCell id="niBrkCM9sAj3qQ2ssmBh-19" value="API Shader" style="shape=process;whiteSpace=wrap;html=1;backgroundOutline=1;rounded=1;strokeColor=default;align=center;verticalAlign=middle;fontFamily=Helvetica;fontSize=12;fontColor=default;fillColor=default;" parent="1" vertex="1">
          <mxGeometry x="930" y="800" width="120" height="60" as="geometry" />
        </mxCell>
      </root>
    </mxGraphModel>
  </diagram>
</mxfile>
